<svg fill="#c8c3bc" class="cesium-svgPath-svg" width="64" height="64" viewBox="0 0 64 64" xmlns="http://www.w3.org/2000/svg" xmlns:xlink="http://www.w3.org/1999/xlink">
    <path
        d="m 2.9825053,17.550598 0,1.368113 0,26.267766 0,1.368113 1.36811,0 54.9981397,0 1.36811,0 0,-1.368113 0,-26.267766 0,-1.368113 -1.36811,0 -54.9981397,0 -1.36811,0 z m 2.73623,2.736226 10.3292497,0 0,10.466063 -10.3292497,0 0,-10.466063 z m 13.0654697,0 11.69737,0 0,10.466063 -11.69737,0 0,-10.466063 z m 14.43359,0 11.69737,0 0,10.466063 -11.69737,0 0,-10.466063 z m 14.43359,0 10.32926,0 0,10.466063 -10.32926,0 0,-10.466063 z m -41.9326497,13.202288 10.3292497,0 0,10.329252 -10.3292497,0 0,-10.329252 z m 13.0654697,0 11.69737,0 0,10.329252 -11.69737,0 0,-10.329252 z m 14.43359,0 11.69737,0 0,10.329252 -11.69737,0 0,-10.329252 z m 14.43359,0 10.32926,0 0,10.329252 -10.32926,0 0,-10.329252 z">
    </path>
</svg>