<?xml version="1.0" encoding="iso-8859-1"?>
<!-- Generator: Adobe Illustrator 19.0.0, SVG Export Plug-In . SVG Version: 6.00 Build 0)  -->
<svg fill="#c8c3bc" version="1.1" id="Layer_1"
	xmlns="http://www.w3.org/2000/svg"
	xmlns:xlink="http://www.w3.org/1999/xlink" x="0px" y="0px" viewBox="0 0 512 512" style="enable-background:new 0 0 512 512;" xml:space="preserve">
	<g>
		<g>
			<path d="M501.296,356.01l-122.069-70.165c-8.358-4.804-18.899-3.406-25.716,3.411l-27.712,27.712l-22.922-22.922l62.573-62.573
			c48.918,23.198,103.297,19.917,137.925-14.691c0.003-0.003,0.007-0.006,0.01-0.01c0.001-0.001,0.002-0.002,0.003-0.003
			c0.002-0.002,0.005-0.005,0.007-0.007l0,0c25.379-25.45-8.656-79.901-68.454-139.699C375.134,17.255,320.676-16.781,295.259,8.588
			c-0.006,0.006-0.012,0.013-0.018,0.019l-0.001-0.001c-34.623,34.623-37.912,89.005-14.719,137.928l-62.578,62.578l-22.911-22.911
			l27.711-27.711c6.817-6.817,8.215-17.358,3.411-25.716L155.989,10.705c-7.176-12.484-24.405-14.42-34.172-3.838L5.657,132.712
			c-7.719,8.362-7.515,21.31,0.463,29.425l90.496,92.053c8.31,8.453,21.917,8.511,30.298,0.129l37.949-37.949l22.911,22.911
			l-36.275,36.275c-8.331,8.331-8.331,21.839,0,30.17l12.303,12.303l-50.888,50.888c-8.331,8.331-8.331,21.839,0,30.17
			s21.839,8.331,30.17,0l50.888-50.888l12.29,12.29c8.331,8.331,21.839,8.331,30.17,0l36.275-36.275l22.922,22.922l-37.948,37.948
			c-8.381,8.381-8.323,21.988,0.129,30.298l92.053,90.496c8.115,7.978,21.063,8.182,29.425,0.463l125.845-116.16
			C515.715,380.414,513.78,363.186,501.296,356.01z M111.959,208.936l-61.165-62.218l82.677-89.571l47.551,82.726L111.959,208.936z
			 M345.954,166.046c-25.06-25.06-37.723-55.821-37.583-82.54c1.25,1.854,2.565,3.732,3.91,5.621c0.135,0.19,0.27,0.38,0.407,0.571
			c1.658,2.315,3.386,4.655,5.181,7.019c0.156,0.205,0.311,0.41,0.468,0.615c1.804,2.364,3.674,4.75,5.609,7.158
			c0.168,0.21,0.337,0.419,0.507,0.629c1.954,2.422,3.972,4.864,6.052,7.326c0.162,0.191,0.324,0.383,0.487,0.575
			c2.113,2.492,4.288,5.004,6.524,7.533c0.136,0.153,0.272,0.307,0.408,0.461c2.278,2.571,4.617,5.16,7.016,7.765
			c0.098,0.107,0.197,0.214,0.296,0.321c2.455,2.662,4.97,5.34,7.544,8.033c0.02,0.021,0.04,0.041,0.06,0.062
			c3.518,3.679,7.132,7.381,10.858,11.107s7.428,7.34,11.107,10.858c0.021,0.02,0.041,0.04,0.062,0.06
			c2.692,2.574,5.369,5.088,8.031,7.542c0.108,0.099,0.216,0.199,0.323,0.298c2.591,2.386,5.165,4.712,7.723,6.979
			c0.178,0.158,0.356,0.316,0.534,0.473c2.495,2.205,4.972,4.351,7.431,6.436c0.237,0.201,0.474,0.402,0.711,0.602
			c2.405,2.031,4.79,4.002,7.156,5.913c0.284,0.229,0.568,0.458,0.851,0.685c2.318,1.861,4.616,3.663,6.893,5.402
			c0.324,0.247,0.646,0.492,0.969,0.737c1.315,0.997,2.623,1.973,3.923,2.928c0.221,0.162,0.442,0.328,0.663,0.488
			c0.68,0.497,1.357,0.984,2.033,1.469c0.366,0.263,0.731,0.522,1.096,0.781c1.121,0.796,2.236,1.575,3.345,2.338
			c0.365,0.251,0.732,0.506,1.096,0.753c0.282,0.192,0.568,0.394,0.85,0.584C401.776,203.77,371.014,191.106,345.954,166.046z
			 M458.059,171.414c-0.15-0.095-0.302-0.194-0.453-0.29c-0.985-0.627-1.977-1.267-2.984-1.932
			c-0.167-0.111-0.338-0.226-0.505-0.338c-1.052-0.699-2.113-1.413-3.187-2.152c-0.128-0.088-0.258-0.18-0.386-0.269
			c-1.119-0.773-2.247-1.562-3.388-2.377c-0.086-0.061-0.173-0.125-0.259-0.187c-1.19-0.852-2.39-1.722-3.603-2.618
			c-0.022-0.016-0.044-0.033-0.066-0.049c-15.413-11.389-32.527-26.248-49.354-43.075c-16.823-16.823-31.68-33.934-43.068-49.344
			c-0.019-0.026-0.039-0.052-0.058-0.078c-0.896-1.214-1.768-2.415-2.62-3.606c-0.06-0.084-0.122-0.169-0.182-0.252
			c-0.817-1.144-1.608-2.275-2.383-3.397c-0.086-0.125-0.176-0.252-0.262-0.377c-0.741-1.077-1.457-2.141-2.158-3.195
			c-0.11-0.165-0.224-0.333-0.333-0.497c-0.667-1.009-1.308-2.004-1.937-2.991c-0.095-0.149-0.193-0.3-0.287-0.448
			c18.752,11.875,41.725,30.83,64.184,53.289C427.229,129.69,446.184,152.662,458.059,171.414z M221.346,315.234l-24.593-24.593
			l106.523-106.523l24.593,24.593L221.346,315.234z M365.283,461.205l-62.218-61.165l69.063-69.063l82.726,47.551L365.283,461.205z" />
		</g>
	</g>
	<g>
	</g>
	<g>
	</g>
	<g>
	</g>
	<g>
	</g>
	<g>
	</g>
	<g>
	</g>
	<g>
	</g>
	<g>
	</g>
	<g>
	</g>
	<g>
	</g>
	<g>
	</g>
	<g>
	</g>
	<g>
	</g>
	<g>
	</g>
	<g>
	</g>
</svg>
