<svg fill="#c8c3bc" class="cesium-svgPath-svg cesium-sceneModePicker-slide-svg cesium-sceneModePicker-iconColumbusView" width="64" height="64" viewBox="0 0 64 64" xmlns="http://www.w3.org/2000/svg" xmlns:xlink="http://www.w3.org/1999/xlink">
    <path
        d="m 14.723969,17.675598 -0.340489,0.817175 -11.1680536,26.183638 -0.817175,1.872692 2.076986,0 54.7506996,0 2.07698,0 -0.81717,-1.872692 -11.16805,-26.183638 -0.34049,-0.817175 -0.91933,0 -32.414586,0 -0.919322,0 z m 1.838643,2.723916 6.196908,0 -2.928209,10.418977 -7.729111,0 4.460412,-10.418977 z m 9.02297,0 4.903049,0 0,10.418977 -7.831258,0 2.928209,-10.418977 z m 7.626964,0 5.584031,0 2.62176,10.418977 -8.205791,0 0,-10.418977 z m 8.410081,0 5.51593,0 4.46042,10.418977 -7.38863,0 -2.58772,-10.418977 z m -30.678091,13.142892 8.103649,0 -2.89416,10.282782 -9.6018026,0 4.3923136,-10.282782 z m 10.929711,0 8.614384,0 0,10.282782 -11.508544,0 2.89416,-10.282782 z m 11.338299,0 8.852721,0 2.58772,10.282782 -11.440441,0 0,-10.282782 z m 11.678781,0 7.86531,0 4.39231,10.282782 -9.6699,0 -2.58772,-10.282782 z">
    </path>
</svg>